<?xml version="1.0" standalone="no"?><!DOCTYPE svg PUBLIC "-//W3C//DTD SVG 1.1//EN" "http://www.w3.org/Graphics/SVG/1.1/DTD/svg11.dtd"><svg t="1653232734836" class="icon" viewBox="0 0 1028 1024" version="1.1" xmlns="http://www.w3.org/2000/svg" p-id="6217" xmlns:xlink="http://www.w3.org/1999/xlink" width="128.5" height="128"><defs><style type="text/css">@font-face { font-family: feedback-iconfont; src: url("//at.alicdn.com/t/font_1031158_u69w8yhxdu.woff2?t=1630033759944") format("woff2"), url("//at.alicdn.com/t/font_1031158_u69w8yhxdu.woff?t=1630033759944") format("woff"), url("//at.alicdn.com/t/font_1031158_u69w8yhxdu.ttf?t=1630033759944") format("truetype"); }
</style></defs><path d="M646.4 512l345.6-345.6c38.4-38.4 38.4-96 0-134.4-38.4-38.4-96-38.4-134.4 0L512 377.6 166.4 32C128-6.4 70.4-6.4 32 32c-38.4 38.4-38.4 96 0 134.4L377.6 512l-345.6 345.6c-38.4 38.4-38.4 96 0 134.4 19.2 19.2 44.8 25.6 70.4 25.6s51.2-6.4 70.4-25.6L512 646.4l345.6 345.6c19.2 19.2 44.8 25.6 70.4 25.6s51.2-6.4 70.4-25.6c38.4-38.4 38.4-96 0-134.4L646.4 512z" p-id="6218" fill="#2c2c2c"></path></svg>