<?xml version="1.0" standalone="no"?><!DOCTYPE svg PUBLIC "-//W3C//DTD SVG 1.1//EN" "http://www.w3.org/Graphics/SVG/1.1/DTD/svg11.dtd"><svg t="1678674931248" class="icon" viewBox="0 0 1024 1024" version="1.1" xmlns="http://www.w3.org/2000/svg" p-id="12890" xmlns:xlink="http://www.w3.org/1999/xlink" width="200" height="200"><path d="M486.229333 819.626667L116.565333 423.936c-15.36-16.384-2.304-41.472 21.845334-41.472h236.032V22.698667A22.186667 22.186667 0 0 1 396.202667 0h220.842666a22.186667 22.186667 0 0 1 21.845334 22.698667v359.765333h238.848c24.064 0 37.205333 25.088 21.76 41.472L529.92 819.541333a30.72 30.72 0 0 1-43.605333 0z m393.557334 106.581333c14.506667 0 26.368 9.557333 26.368 21.333333v54.698667c0 11.861333-11.861333 21.418667-26.368 21.418667H136.192c-14.506667 0-26.282667-9.557333-26.282667-21.333334v-54.613333c0-11.946667 11.776-21.504 26.282667-21.504H879.786667z" fill="#43475C" p-id="12891"></path></svg>